<mxfile host="app.diagrams.net" modified="2023-03-02T11:34:25.399Z" agent="5.0 (Macintosh; Intel Mac OS X 10_15_7) AppleWebKit/537.36 (KHTML, like Gecko) Chrome/110.0.0.0 Safari/537.36" etag="dfRI4v9eTil3yb5L4czv" version="20.8.20" type="github">
  <diagram id="PpO1pqE9R3E5Xo-2VSUw" name="Page-1">
    <mxGraphModel dx="956" dy="857" grid="1" gridSize="10" guides="1" tooltips="1" connect="1" arrows="1" fold="1" page="1" pageScale="1" pageWidth="850" pageHeight="1100" math="0" shadow="0">
      <root>
        <mxCell id="0" />
        <mxCell id="1" parent="0" />
        <mxCell id="UjWTVnEfoSuOTduYf2C0-1" value="生产服务器" style="points=[];aspect=fixed;html=1;align=center;shadow=0;dashed=0;image;image=img/lib/allied_telesis/computer_and_terminals/Server_Desktop.svg;" vertex="1" parent="1">
          <mxGeometry x="170" y="280" width="76.78" height="97.32" as="geometry" />
        </mxCell>
        <mxCell id="UjWTVnEfoSuOTduYf2C0-2" value="备份服务器" style="points=[];aspect=fixed;html=1;align=center;shadow=0;dashed=0;image;image=img/lib/allied_telesis/computer_and_terminals/Server_Desktop.svg;" vertex="1" parent="1">
          <mxGeometry x="560" y="280" width="76.78" height="97.32" as="geometry" />
        </mxCell>
        <mxCell id="UjWTVnEfoSuOTduYf2C0-3" value="存储服务器" style="points=[];aspect=fixed;html=1;align=center;shadow=0;dashed=0;image;image=img/lib/allied_telesis/storage/Datacenter_Server_Storage_Unit_Large.svg;" vertex="1" parent="1">
          <mxGeometry x="370" y="520" width="76.8" height="79.2" as="geometry" />
        </mxCell>
        <mxCell id="UjWTVnEfoSuOTduYf2C0-4" value="" style="endArrow=classic;html=1;rounded=0;entryX=-0.039;entryY=0.492;entryDx=0;entryDy=0;entryPerimeter=0;" edge="1" parent="1" source="UjWTVnEfoSuOTduYf2C0-1" target="UjWTVnEfoSuOTduYf2C0-3">
          <mxGeometry width="50" height="50" relative="1" as="geometry">
            <mxPoint x="150" y="640" as="sourcePoint" />
            <mxPoint x="200" y="590" as="targetPoint" />
          </mxGeometry>
        </mxCell>
        <mxCell id="UjWTVnEfoSuOTduYf2C0-5" value="使用Shell脚本定时备份中间件数据" style="edgeLabel;html=1;align=center;verticalAlign=middle;resizable=0;points=[];" vertex="1" connectable="0" parent="UjWTVnEfoSuOTduYf2C0-4">
          <mxGeometry x="-0.1089" relative="1" as="geometry">
            <mxPoint x="1" as="offset" />
          </mxGeometry>
        </mxCell>
        <mxCell id="UjWTVnEfoSuOTduYf2C0-6" value="" style="endArrow=classic;html=1;rounded=0;exitX=0.99;exitY=0.442;exitDx=0;exitDy=0;exitPerimeter=0;" edge="1" parent="1" source="UjWTVnEfoSuOTduYf2C0-3">
          <mxGeometry width="50" height="50" relative="1" as="geometry">
            <mxPoint x="540" y="430" as="sourcePoint" />
            <mxPoint x="590" y="380" as="targetPoint" />
          </mxGeometry>
        </mxCell>
        <mxCell id="UjWTVnEfoSuOTduYf2C0-7" value="发生故障时，从存储中恢复数据" style="edgeLabel;html=1;align=center;verticalAlign=middle;resizable=0;points=[];" vertex="1" connectable="0" parent="UjWTVnEfoSuOTduYf2C0-6">
          <mxGeometry x="-0.1313" y="-3" relative="1" as="geometry">
            <mxPoint as="offset" />
          </mxGeometry>
        </mxCell>
      </root>
    </mxGraphModel>
  </diagram>
</mxfile>
